<?xml version="1.0" encoding="utf-8"?>
<!-- Generator: Adobe Illustrator 24.1.2, SVG Export Plug-In . SVG Version: 6.00 Build 0)  -->
<svg version="1.1" id="Food_Delivery_Part_2" xmlns="http://www.w3.org/2000/svg" xmlns:xlink="http://www.w3.org/1999/xlink"
	 x="0px" y="0px" viewBox="0 0 24 24" style="enable-background:new 0 0 24 24;" xml:space="preserve">
<g>
	<rect x="2" y="15" width="20" height="2"/>
</g>
<g>
	<polygon points="15.351,21 8.649,21 3.375,16.781 4.625,15.219 9.351,19 14.649,19 19.375,15.219 20.625,16.781 	"/>
</g>
<g>
	<rect x="3.768" y="4" transform="matrix(0.9734 -0.229 0.229 0.9734 -0.8127 2.9948)" width="17.464" height="2"/>
</g>
<g>
	<rect x="4" y="6" width="17" height="2"/>
</g>
<g>
	<path d="M9.949,16.316l-1.897-0.633l0.578-1.735c0.204-0.611,0.204-1.285,0-1.896L8.473,11.58c-0.339-1.019-0.339-2.142,0-3.161
		l0.578-1.735l1.897,0.633l-0.578,1.735c-0.204,0.611-0.204,1.285,0,1.896l0.157,0.472c0.339,1.019,0.339,2.142,0,3.161
		L9.949,16.316z"/>
</g>
<g>
	<path d="M12.949,16.316l-1.897-0.633l0.578-1.735c0.204-0.611,0.204-1.285,0-1.896l-0.157-0.472c-0.339-1.019-0.339-2.142,0-3.161
		l0.578-1.735l1.897,0.633l-0.578,1.735c-0.204,0.611-0.204,1.285,0,1.896l0.157,0.472c0.339,1.019,0.339,2.142,0,3.161
		L12.949,16.316z"/>
</g>
<g>
	<path d="M6.949,16.316l-1.897-0.633l0.578-1.735c0.204-0.611,0.204-1.285,0-1.896L5.473,11.58c-0.339-1.019-0.339-2.142,0-3.161
		l0.578-1.735l1.897,0.633L7.371,9.052c-0.204,0.611-0.204,1.285,0,1.896l0.157,0.472c0.339,1.019,0.339,2.142,0,3.161L6.949,16.316
		z"/>
</g>
</svg>
