<svg id="Layer_3" data-name="Layer 3" xmlns="http://www.w3.org/2000/svg" viewBox="0 0 128 128"><title>Artboard 101</title><path d="M16.951,89.082l46.272,23.74c.013.009.03.012.044.02a1.431,1.431,0,0,0,.272.124c.031.011.061.021.093.029a1.3,1.3,0,0,0,.873-.049c.044-.017.084-.037.126-.057a1.459,1.459,0,0,0,.146-.067l46.272-23.74a1.439,1.439,0,0,0,.785-1.282h.006v-47.6a1.429,1.429,0,0,0-.076-.441v0a1.433,1.433,0,0,0-.264-.477l-.005-.006a1.442,1.442,0,0,0-.552-.408L87.852,27.011l-23.2-11.9a1.439,1.439,0,0,0-1.31,0l-23.2,11.9L17.058,38.858a1.446,1.446,0,0,0-.734.681h0a1.429,1.429,0,0,0-.153.544v.01c0,.034-.01.066-.01.1V87.8h.006A1.44,1.44,0,0,0,16.951,89.082Zm2.1-46.526,21.1,10.823,22.406,11.5v44.369l-43.5-22.319Zm46.393,66.687V64.873l22.406-11.5,21.1-10.823V86.923ZM64,18.01,86.541,29.575l20.7,10.62L87.2,50.478,43.957,28.293Zm-23.2,11.9L84.043,52.1,64,62.379,41.458,50.814l-20.7-10.619Z"/><path d="M98.111,58.017a3.615,3.615,0,0,0-2.294-2.172,4.844,4.844,0,0,0-3.6.321l-11.05,5.309a5.973,5.973,0,0,0-2.758,2.735,4.648,4.648,0,0,0-.317,3.52l.009.025a3.614,3.614,0,0,0,2.331,2.273,4.844,4.844,0,0,0,3.6-.321L95.081,64.4a5.973,5.973,0,0,0,2.759-2.735,4.669,4.669,0,0,0,.344-3.437A1.191,1.191,0,0,0,98.111,58.017ZM95.236,60.8a2.27,2.27,0,0,1-1.046,1.041L83.14,67.155a1.832,1.832,0,0,1-1.363.117,1.377,1.377,0,0,1-.862-.793,1.223,1.223,0,0,0-.046-.134,1.778,1.778,0,0,1,.141-1.277,2.269,2.269,0,0,1,1.046-1.041l11.05-5.309a1.833,1.833,0,0,1,1.363-.117,1.374,1.374,0,0,1,.888.861l0,.006A1.758,1.758,0,0,1,95.236,60.8Z"/></svg>