<svg xmlns="http://www.w3.org/2000/svg" width="128" height="128" viewBox="0 0 128 128">
  <title>GALLON</title>
  <g>
    <path d="M34.262,97.389H93.737a0,0,0,0,1,0,0v3.858a8.331,8.331,0,0,1-8.331,8.331H42.593a8.331,8.331,0,0,1-8.331-8.331V97.389A0,0,0,0,1,34.262,97.389Z" fill="#6bc1b0"/>
    <rect x="34.262" y="68.793" width="59.475" height="12.189" rx="2.364" fill="#6bc1b0"/>
    <rect x="36.744" y="52.385" width="54.513" height="16.408" fill="#38a590"/>
    <rect x="36.744" y="80.981" width="54.513" height="16.408" fill="#38a590"/>
    <path d="M87.366,40.132,71.59,34.412V28.426H56.41v5.986l-15.776,5.72A9.667,9.667,0,0,0,34.262,49.4v2.986H93.737V49.4A9.667,9.667,0,0,0,87.366,40.132Z" fill="#6bc1b0"/>
    <rect x="54.651" y="18.422" width="18.697" height="10.004" fill="#38a590"/>
  </g>
</svg>
