<?xml version="1.0" encoding="utf-8"?>
<!-- Generator: Adobe Illustrator 23.0.6, SVG Export Plug-In . SVG Version: 6.00 Build 0)  -->
<svg version="1.1" id="Layer_1" xmlns="http://www.w3.org/2000/svg" xmlns:xlink="http://www.w3.org/1999/xlink" x="0px" y="0px"
	 viewBox="0 0 128 128" style="enable-background:new 0 0 128 128;" xml:space="preserve">
<title>MILK</title>
<path d="M91.3,41.5L79.2,26.1V18c0-1-0.8-1.7-1.8-1.8H50.6c-1,0-1.7,0.8-1.8,1.8v8.1L36.7,41.5c-0.2,0.3-0.4,0.7-0.4,1.1V110
	c0,1,0.8,1.8,1.8,1.8h51.8c1,0,1.8-0.8,1.8-1.8c0,0,0-50.5,0-67.4C91.6,42.3,91.5,41.9,91.3,41.5z M66.7,108.3V44.4h21.4v63.9H66.7z
	 M86.3,40.9H68.5l8.9-11.3L86.3,40.9z M52.3,19.7h23.3V25H52.3V19.7z M51.4,28.5h22.4l-9.7,12.4H41.7L51.4,28.5z M39.9,108.3V44.4
	h23.3v63.9H39.9z"/>
</svg>
