<svg id="Layer_1" data-name="Layer 1" xmlns="http://www.w3.org/2000/svg" viewBox="0 0 48 48"><defs><style>.cls-1{fill:none;stroke:#000;stroke-linecap:round;stroke-linejoin:round;stroke-width:2px;}</style></defs><title>drugs</title><path class="cls-1" d="M33.57,17.13l-.06.06-8.16,8.16L14.42,14.42l8.16-8.16a7.72,7.72,0,0,1,10.93,0h0A7.72,7.72,0,0,1,33.57,17.13Z"/><path class="cls-1" d="M25.36,25.36,17.2,33.52l-.06.06a7.72,7.72,0,0,1-10.86-.06h0a7.72,7.72,0,0,1,0-10.93l8.16-8.16Z"/><path class="cls-1" d="M44,30.38a13.62,13.62,0,0,1-26.87,3.2l.06-.06L33.52,17.2l.06-.06A13.63,13.63,0,0,1,44,30.38Z"/><line class="cls-1" x1="44" y1="31" x2="20" y2="31"/><rect class="cls-1" x="-360" y="-20" width="700" height="700"/></svg>