<svg height="512" viewBox="0 0 60 60" width="512" xmlns="http://www.w3.org/2000/svg"><g id="Page-1" fill="none" fill-rule="evenodd"><g id="001---House-Clean" fill-rule="nonzero"><path id="Shape" d="m10 36v21c0 1.1045695-.8954305 2-2 2h-5c-1.10320187-.0032948-1.9967052-.8967981-2-2v-21c.0032948-1.1032019.89679813-1.9967052 2-2h5c1.10320187.0032948 1.9967052.8967981 2 2z" fill="#f44335"/><path id="Shape" d="m8 34h-3c1.10320187.0032948 1.9967052.8967981 2 2v21c0 1.1045695-.8954305 2-2 2h3c1.1045695 0 2-.8954305 2-2v-21c-.0032948-1.1032019-.89679813-1.9967052-2-2z" fill="#c81e1e"/><path id="Shape" d="m57.68 45.57-18.74 11.41c-1.0968305.667384-2.3560847 1.020252-3.64 1.02l-25.57.0000001c.17625351-.3038397.26937666-.6487403.27-1.0000001v-21h2.8c.0668228-.0016596.1336761.001683.2.01 2.0020766.0415876 3.9348263.7408916 5.5 1.99 1.0293271.8206375 2.2229133 1.4106101 3.5 1.73.719439.1801324 1.4583535.2708173 2.2.27h5.23c1.7582968-.0025667 3.3881205.9206201 4.29 2.43.9343501 1.4434391.7432752 3.3417267-.46 4.57h2.35c.4319935.0002223.8610725-.0707278 1.27-.21l1.12-.37 9-3 8.39-2.8c1.120338-.3678364 2.3505552.0181141 3.06.96v.01c.4649441.6171961.6465512 1.4025179.4997758 2.1611752s-.608183 1.4195768-1.2697758 1.8188248z" fill="#ffe0b2"/><path id="Shape" d="m30.72 42.43c.9343501 1.4434391.7432752 3.3417267-.46 4.57h2.35c.2389596-.0017973.4772657-.0252262.712-.07 1.1439806-1.2332462 1.3085195-3.0843093.4-4.5-.9022446-1.5099934-2.5329904-2.4332722-4.292-2.43l-3-.0000087c1.7582968-.002558 3.3881205.9206288 4.29 2.4300087z" fill="#dfc49c"/><path id="Shape" d="m58.45 41.59v-.01c-.7094448-.9418859-1.939662-1.3278364-3.06-.96l-.749.25c.3140349.1807419.5890261.4220816.809.71v.01c.4649441.6171961.6465512 1.4025179.4997758 2.1611752s-.608183 1.4195768-1.2697758 1.8188248l-18.74 11.41c-1.0968305.667384-2.3560847 1.020252-3.64 1.0200001l3-.0000001c1.2839153.000252 2.5431695-.352616 3.64-1.02l18.74-11.41c.6615928-.399248 1.1230004-1.0601675 1.2697758-1.8188248s-.0348317-1.5439791-.4997758-2.1611752z" fill="#dfc49c"/><path id="Shape" d="m47 20v23.42l-9 3v-9.42c0-4.418278-3.581722-8-8-8s-8 3.581722-8 8v2.73c-1.2770867-.3193899-2.4706729-.9093625-3.5-1.73-1.5651737-1.2491084-3.4979234-1.9484124-5.5-1.99v-16.01z" fill="#ff5722"/><path id="Shape" d="m27 29c-4.418278 0-8 3.581722-8 8v1.357c.9092933.6343563 1.9255679 1.0994713 3 1.373v-2.73c.0019753-3.8383221 2.7297515-7.134315 6.5-7.854-.4942495-.0960505-.9965051-.1449368-1.5-.146z" fill="#d84315"/><path id="Shape" d="m44 20v23.42l-6 2v1l9-3v-23.42z" fill="#d84315"/><path id="Shape" d="m49.31 20h-38.62c-.4205352.0042632-.79879883-.2550455-.94646619-.6488252-.14766737-.3937796-.03317862-.8378705.28646619-1.1111748l19.32-16.68c.374224-.32008772.925776-.32008772 1.3 0l9.35 8.07v.01l7 6.04 2.97 2.56c.3196448.2733043.4341336.7173952.2864662 1.1111748-.1476674.3937797-.525931.6530884-.9464662.6488252z" fill="#a0522d"/><path id="Shape" d="m49.97 18.24-2.97-2.56-7-6.04v-.01l-9.35-8.07c-.374224-.32008772-.925776-.32008772-1.3 0l-.85.734 8.5 7.336v.01l7 6.04 2.97 2.56c.3196448.2733043.4341336.7173952.2864662 1.1111748-.1476674.3937797-.525931.6530884-.9464662.6488252h3c.4205352.0042632.7987988-.2550455.9464662-.6488252.1476674-.3937796.0331786-.8378705-.2864662-1.1111748z" fill="#783e22"/><path id="Shape" d="m47 4v11.68l-7-6.04v-5.64c0-.55228475.4477153-1 1-1h5c.5522847 0 1 .44771525 1 1z" fill="#783e22"/><path id="Shape" d="m38 37v9.42l-1.12.37c-.4089275.1392722-.8380065.2102223-1.27.21h-2.35c1.2032752-1.2282733 1.3943501-3.1265609.46-4.57-.9018795-1.5093799-2.5317032-2.4325667-4.29-2.43h-5.23c-.7416465.0008173-1.480561-.0898676-2.2-.27v-2.73c0-4.418278 3.581722-8 8-8s8 3.581722 8 8z" fill="#ff9801"/><path id="Shape" d="m35.66 31.34c-1.8734695-1.8762413-4.5570003-2.698541-7.16-2.194 3.7758497.7101985 6.5083912 4.0119494 6.5 7.854v9.42l-1.12.37c-.1822586.0604817-.3687765.1072783-.558.14-.022.023-.039.047-.062.07h2.35c.4319935.0002223.8610725-.0707278 1.27-.21l1.12-.37v-9.42c.0001329-2.1220657-.8413942-4.1575542-2.34-5.66z" fill="#f57c00"/><path id="Shape" d="m29.678 20.464c-1.4416584.610772-2.589228 1.7583416-3.2 3.2-.0725503.1963223-.2597012.3266824-.469.3266824s-.3964497-.1303601-.469-.3266824c-.610772-1.4416584-1.7583416-2.589228-3.2-3.2-.1963223-.0725503-.3266824-.2597012-.3266824-.469s.1303601-.3964497.3266824-.469c1.4416584-.610772 2.589228-1.7583416 3.2-3.2.0725503-.1963223.2597012-.3266824.469-.3266824s.3964497.1303601.469.3266824c.610772 1.4416584 1.7583416 2.589228 3.2 3.2.1963223.0725503.3266824.2597012.3266824.469s-.1303601.3964497-.3266824.469z" fill="#ffdc00"/><g fill="#000"><path id="Shape" d="m3 60h5c.84849384-.0026614 1.6557601-.3662948 2.22-1h25.08c1.4674156.0006138 2.9066743-.4027938 4.16-1.166l18.74-11.408c.8861698-.5351758 1.5101446-1.4144837 1.722716-2.4276587.2125715-1.0131749-.0053725-2.0691235-.601716-2.9153413-.0211838-.0347875-.0445646-.0681886-.07-.1-.9674494-1.285176-2.6463435-1.8108862-4.174-1.307l-7.077 2.353v-21.029h1.31c.83848.0044805 1.5907385-.51454 1.8841979-1.3000018s.0658102-1.6705896-.5701979-2.2169982l-2.624-2.265v-11.218c0-1.1045695-.8954305-2-2-2h-5c-1.1045695 0-2 .8954305-2 2v3.448l-7.7-6.648c-.7496818-.63682621-1.8503182-.63682621-2.6 0l-19.327 16.686c-.63404392.5472616-.85993036 1.4316354-.56599012 2.2159224.29394024.7842871 1.04544087 1.3023493 1.88299012 1.2980776h1.31v14h-1.184c-.4222546-1.1943509-1.54921457-1.9947486-2.816-2h-5c-1.65685425 0-3 1.3431458-3 3v21c0 1.6568542 1.34314575 3 3 3zm52.7-18.431c.6861666-.2253147 1.4402969-.0070139 1.9.55.0150636.02484.0314194.048873.049.072.2947436.3918849.4095617.8903409.3159627 1.3716795-.0935989.4813386-.3868419.9004449-.8069627 1.1533205l-18.738 11.41c-.9401696.5719432-2.0195283.8743021-3.12.874l-24.3.0000002v-20.0000002h1.8c1.845108.0020745 3.634951.6299473 5.077 1.781 1.7963064 1.4330224 4.0251194 2.2152043 6.323 2.219h5.23c1.394477.0037201 2.687363.7300223 3.416 1.919.011.025.023.048.033.066.6282519.9152462.600051 2.1298968-.07 3.015h-6.089c-1.9744471.0012643-3.9045319.5857168-5.548 1.68l-.73.49c-.4583963.3081749-.5801749.9296037-.272 1.388s.9296037.5801749 1.388.272l.724-.486c1.3144658-.875765 2.8585114-1.3433624 4.438-1.344h8.89c.5394129.0006918 1.0752548-.087489 1.586-.261zm-18.7 4.131-.444.148c-.3048656.1021956-.6244653.1535477-.946.152h-.545c.4410785-1.3276445.2826613-2.7815064-.434-3.983-.0159082-.0344212-.0339431-.0678191-.054-.1-1.0873635-1.8046689-3.0380713-2.9106386-5.145-2.917h-5.232c-.4019373-.0032901-.8030621-.0367172-1.2-.1v-1.9c0-3.8659932 3.1340068-7 7-7s7 3.1340068 7 7zm4-41.7h5v9.492l-5-4.317zm-25 17c.5522847 0 1-.4477153 1-1s-.4477153-1-1-1h-5.317l19.317-16.683 19.31 16.683h-13.31c-.5522847 0-1 .4477153-1 1s.4477153 1 1 1h10v21.7l-7 2.333v-8.033c0-4.9705627-4.0294373-9-9-9s-9 4.0294373-9 9v1.336c-.6727193-.2856669-1.3034921-.6614393-1.875-1.117-1.4768401-1.1744322-3.2513695-1.9147139-5.125-2.138v-14.081zm-14 15c0-.5522847.44771525-1 1-1h5c.55228475 0 1 .4477153 1 1v21c0 .5522847-.44771525 1-1 1h-5c-.55228475 0-1-.4477153-1-1z"/><path id="Shape" d="m12 5c.5522847 0 1-.44771525 1-1v-2c0-.55228475-.4477153-1-1-1s-1 .44771525-1 1v2c0 .55228475.4477153 1 1 1z"/><path id="Shape" d="m12 7c-.5522847 0-1 .44771525-1 1v2c0 .5522847.4477153 1 1 1s1-.4477153 1-1v-2c0-.55228475-.4477153-1-1-1z"/><path id="Shape" d="m14 7h2c.5522847 0 1-.44771525 1-1s-.4477153-1-1-1h-2c-.5522847 0-1 .44771525-1 1s.4477153 1 1 1z"/><path id="Shape" d="m8 7h2c.5522847 0 1-.44771525 1-1s-.4477153-1-1-1h-2c-.55228475 0-1 .44771525-1 1s.44771525 1 1 1z"/><path id="Shape" d="m55.5 29.5c.2651948-.0000566.5195073-.1054506.707-.293l1.5-1.5c.3789722-.3923789.3735524-1.0160848-.0121814-1.4018186s-1.0094397-.3911536-1.4018186-.0121814l-1.5 1.5c-.2859079.2859943-.3714219.7160366-.216678 1.0896546.1547439.3736179.5192821.6172591.923678.6173454z"/><path id="Shape" d="m51.793 30.793-1.5 1.5c-.2599566.2510745-.3642126.6228779-.2726972.9725073.0915155.3496295.3645604.6226744.7141899.7141899.3496294.0915154.7214328-.0127406.9725073-.2726972l1.5-1.5c.3789722-.3923789.3735524-1.0160848-.0121814-1.4018186s-1.0094397-.3911536-1.4018186-.0121814z"/><path id="Shape" d="m56.293 33.707c.3923789.3789722 1.0160848.3735524 1.4018186-.0121814s.3911536-1.0094397.0121814-1.4018186l-1.5-1.5c-.3923789-.3789722-1.0160848-.3735524-1.4018186.0121814s-.3911536 1.0094397-.0121814 1.4018186z"/><path id="Shape" d="m50.293 26.293c-.3903819.3904999-.3903819 1.0235001 0 1.414l1.5 1.5c.3923789.3789722 1.0160848.3735524 1.4018186-.0121814s.3911536-1.0094397.0121814-1.4018186l-1.5-1.5c-.3904999-.3903819-1.0235001-.3903819-1.414 0z"/><path id="Shape" d="m20 21c2.7600532.0033061 4.9966939 2.2399468 5 5 0 .5522847.4477153 1 1 1s1-.4477153 1-1c.0033061-2.7600532 2.2399468-4.9966939 5-5 .5522847 0 1-.4477153 1-1s-.4477153-1-1-1c-2.7600532-.0033061-4.9966939-2.2399468-5-5 0-.5522847-.4477153-1-1-1s-1 .4477153-1 1c-.0033061 2.7600532-2.2399468 4.9966939-5 5-.5522847 0-1 .4477153-1 1s.4477153 1 1 1zm6-3.4c.5931269.9831096 1.4168904 1.8068731 2.4 2.4-.9831096.5931269-1.8068731 1.4168904-2.4 2.4-.5931269-.9831096-1.4168904-1.8068731-2.4-2.4.9831096-.5931269 1.8068731-1.4168904 2.4-2.4z"/></g></g></g></svg>