<svg xmlns="http://www.w3.org/2000/svg" viewBox="0 0 48 48"><title>Washing dish</title><g id="Washing_dish" data-name="Washing dish"><path d="M45,30.46V28a2,2,0,0,0-2-2,20.94,20.94,0,0,0-2.57-11.08,6,6,0,0,0-2.5-10.85,5,5,0,0,0-9.91.7c-.42.15-2.24-.77-6-.77A21,21,0,0,0,2.33,32.29a6,6,0,0,0-.09,9.38,6,6,0,0,0,10.41,2.12A21,21,0,0,0,36,40.64V46a2,2,0,0,0,2,2h8a2,2,0,0,0,2-2V34.07C48,32.14,46.57,31.51,45,30.46ZM38,37h8v5H38Zm8-2H38c0-1.76-.22-1.32,2.3-3h3.4C46.31,33.74,46,33.27,46,35Zm-3-5H41V28h2ZM29.84,6.11A1.47,1.47,0,0,0,30,5a3,3,0,0,1,6,0,1,1,0,0,0,1,1,4,4,0,0,1,.86,7.9,1,1,0,0,0-.6.4A4,4,0,0,1,30,12.36a1,1,0,0,0-.86-.9,2.48,2.48,0,0,1,0-4.92A1.06,1.06,0,0,0,29.84,6.11ZM13.23,31a4.49,4.49,0,0,0-3.87-3A13,13,0,0,1,28.27,13.62a5.93,5.93,0,0,0,4.59,4.27c6.72,10.24-3.32,23.4-15,19.4A5,5,0,0,0,13.23,31ZM25.84,6.4a4.42,4.42,0,0,0-.62,4,15,15,0,0,0-17.85,18,4.53,4.53,0,0,0-2.65,2.84,6.17,6.17,0,0,0-.61.19A19,19,0,0,1,25.84,6.4ZM8,44a4,4,0,0,1-3.9-3.14,1,1,0,0,0-.4-.6A4,4,0,0,1,5.64,33a1,1,0,0,0,.9-.86,2.48,2.48,0,0,1,4.92,0,1.06,1.06,0,0,0,.43.66A1.47,1.47,0,0,0,13,33a3,3,0,0,1,0,6,1,1,0,0,0-1,1A4,4,0,0,1,8,44Zm5.63-2a6.16,6.16,0,0,0,.3-1.14,4.94,4.94,0,0,0,3-1.82C30,43.8,41.67,29.82,35.18,17.87a6,6,0,0,0,3.44-2.06A19,19,0,0,1,41,26a2,2,0,0,0-2,2v2.46c-3.27,2.18-3,1.57-3,7.35A18.94,18.94,0,0,1,13.63,42.05ZM38,46V44h8v2Z"/></g></svg>