<?xml version="1.0" encoding="UTF-8" standalone="no"?>
<svg
   xmlns:dc="http://purl.org/dc/elements/1.1/"
   xmlns:cc="http://creativecommons.org/ns#"
   xmlns:rdf="http://www.w3.org/1999/02/22-rdf-syntax-ns#"
   xmlns:svg="http://www.w3.org/2000/svg"
   xmlns="http://www.w3.org/2000/svg"
   width="100%"
   height="100%"
   viewBox="0 0 64 64"
   version="1.1"
   xml:space="preserve"
   style="fill-rule:evenodd;clip-rule:evenodd;stroke-linecap:round;stroke-linejoin:round;stroke-miterlimit:2;"
   id="svg19">
  <metadata
   id="metadata25">
    <rdf:RDF>
      <cc:Work
   rdf:about="">
        <dc:format>image/svg+xml</dc:format>

        <dc:type
   rdf:resource="http://purl.org/dc/dcmitype/StillImage" />

      </cc:Work>

    </rdf:RDF>

  </metadata>

  <defs
   id="defs23" />

  
  <path
   d="M49.569,39.393c0,-7.074 -3.091,-13.796 -8.463,-18.4c-1.628,-1.395 -3.271,-2.803 -4.704,-4.032c-2.533,-2.171 -6.271,-2.171 -8.804,0c-1.433,1.229 -3.076,2.637 -4.704,4.032c-5.372,4.604 -8.463,11.326 -8.463,18.4c0,1.489 0,3.022 0,4.524c0,6.593 5.345,11.938 11.938,11.938c3.634,0 7.628,0 11.262,0c6.593,0 11.938,-5.345 11.938,-11.938c0,-1.502 0,-3.035 0,-4.524Z"
   style="fill:none;stroke:#222a33;stroke-width:1.5px;"
   id="path3" />

  <path
   d="M27.126,17.365c0,0 5.05,-3.134 8.006,-4.969c0.537,-0.333 0.909,-0.876 1.026,-1.497c0.117,-0.621 -0.033,-1.262 -0.412,-1.767c0,-0.001 -0.001,-0.002 -0.001,-0.002c-0.417,-0.555 -1.053,-0.903 -1.746,-0.952c-0.692,-0.049 -1.371,0.205 -1.862,0.695c-0.154,0.154 -0.302,0.303 -0.439,0.44c-0.432,0.431 -0.499,1.107 -0.16,1.615c0.004,0.006 0.008,0.012 0.012,0.018c0.07,0.106 0.044,0.248 -0.059,0.322c-0.103,0.075 -0.246,0.054 -0.324,-0.046c-0.667,-0.857 -1.319,-1.697 -1.869,-2.403c-0.373,-0.48 -0.935,-0.777 -1.543,-0.815c-0.607,-0.038 -1.202,0.187 -1.632,0.618c0,0 0,0 -0.001,0c-0.367,0.368 -0.563,0.873 -0.54,1.392c0.024,0.52 0.265,1.005 0.664,1.338"
   style="fill:none;stroke:#222a33;stroke-width:1.5px;"
   id="path5" />

  <path
   d="M38.704,38.109c0,0 0.414,0.716 0.944,1.635c0.469,0.813 0.469,1.814 0,2.626c-0.469,0.813 -1.336,1.313 -2.274,1.313c-1.949,0 -3.784,0 -3.784,0"
   style="fill:none;stroke:#222a33;stroke-width:1.5px;"
   id="path7" />

  <path
   d="M29.269,43.683l-1.901,0c-0.939,0 -1.806,-0.5 -2.275,-1.313c-0.469,-0.812 -0.469,-1.813 0,-2.626c1.021,-1.768 2,-3.463 2,-3.463"
   style="fill:none;stroke:#222a33;stroke-width:1.5px;"
   id="path9" />

  <path
   d="M29.087,32.826c0,0 0.446,-0.772 1.009,-1.747c0.469,-0.813 1.336,-1.313 2.275,-1.313c0.938,0 1.805,0.5 2.274,1.313c1.148,1.988 2.3,3.983 2.3,3.983"
   style="fill:none;stroke:#222a33;stroke-width:1.5px;"
   id="path11" />

  <path
   d="M35.141,42.132l-1.551,1.551l1.551,1.551"
   style="fill:none;stroke:#222a33;stroke-width:1.5px;"
   id="path13" />

  <path
   d="M27.66,38.4l-0.567,-2.119l-2.119,0.568"
   style="fill:none;stroke:#222a33;stroke-width:1.5px;"
   id="path15" />

  <path
   d="M37.513,32.943l-0.568,2.119l-2.119,-0.568"
   style="fill:none;stroke:#222a33;stroke-width:1.5px;"
   id="path17" />

</svg>
